<?xml version="1.0" encoding="UTF-8" standalone="no"?>
<!-- Created with Inkscape (http://www.inkscape.org/) -->

<svg
   xmlns:dc="http://purl.org/dc/elements/1.1/"
   xmlns:cc="http://creativecommons.org/ns#"
   xmlns:rdf="http://www.w3.org/1999/02/22-rdf-syntax-ns#"
   xmlns:svg="http://www.w3.org/2000/svg"
   xmlns="http://www.w3.org/2000/svg"
   xmlns:sodipodi="http://sodipodi.sourceforge.net/DTD/sodipodi-0.dtd"
   xmlns:inkscape="http://www.inkscape.org/namespaces/inkscape"
   width="48"
   height="48"
   viewBox="0 0 12.7 12.7"
   version="1.1"
   id="svg1910"
   inkscape:version="0.92.4 (5da689c313, 2019-01-14)"
   sodipodi:docname="qa_app_project_48px.svg">
  <defs
     id="defs1904" />
  <sodipodi:namedview
     id="base"
     pagecolor="#ffffff"
     bordercolor="#666666"
     borderopacity="1.0"
     inkscape:pageopacity="0.0"
     inkscape:pageshadow="2"
     inkscape:zoom="16"
     inkscape:cx="-10.232581"
     inkscape:cy="23.457435"
     inkscape:document-units="mm"
     inkscape:current-layer="layer1"
     showgrid="false"
     units="px"
     inkscape:window-width="1920"
     inkscape:window-height="1043"
     inkscape:window-x="0"
     inkscape:window-y="0"
     inkscape:window-maximized="1" />
  <metadata
     id="metadata1907">
    <rdf:RDF>
      <cc:Work
         rdf:about="">
        <dc:format>image/svg+xml</dc:format>
        <dc:type
           rdf:resource="http://purl.org/dc/dcmitype/StillImage" />
        <dc:title />
      </cc:Work>
    </rdf:RDF>
  </metadata>
  <g
     inkscape:label="Layer 1"
     inkscape:groupmode="layer"
     id="layer1"
     transform="translate(0,-284.29997)">
    <path
       style="font-style:normal;font-variant:normal;font-weight:normal;font-stretch:normal;font-size:medium;line-height:normal;font-family:sans-serif;font-variant-ligatures:normal;font-variant-position:normal;font-variant-caps:normal;font-variant-numeric:normal;font-variant-alternates:normal;font-feature-settings:normal;text-indent:0;text-align:start;text-decoration:none;text-decoration-line:none;text-decoration-style:solid;text-decoration-color:#000000;letter-spacing:normal;word-spacing:normal;text-transform:none;writing-mode:lr-tb;direction:ltr;text-orientation:mixed;dominant-baseline:auto;baseline-shift:baseline;text-anchor:start;white-space:normal;shape-padding:0;clip-rule:nonzero;display:inline;overflow:visible;visibility:visible;opacity:1;isolation:auto;mix-blend-mode:normal;color-interpolation:sRGB;color-interpolation-filters:linearRGB;solid-color:#000000;solid-opacity:1;vector-effect:none;fill-opacity:1;fill-rule:nonzero;stroke:none;stroke-width:3.77952766;stroke-linecap:butt;stroke-linejoin:miter;stroke-miterlimit:4;stroke-dasharray:7.55905527, 3.77952763000000003;stroke-dashoffset:7;stroke-opacity:1;paint-order:markers stroke fill;color-rendering:auto;image-rendering:auto;shape-rendering:auto;text-rendering:auto;enable-background:accumulate;"
       d="M 5.8925781 3.75 C 4.7848889 3.75 3.7910156 3.7519531 3.7910156 3.7519531 C 3.7910156 3.7519531 3.7910156 4.8741389 3.7910156 5.8515625 L 3.7910156 9.5585938 L 7.8222656 9.5585938 L 7.8222656 7.7792969 L 9.921875 7.7792969 L 9.921875 3.75 L 5.8925781 3.75 z M 13.953125 3.75 L 13.953125 7.7792969 L 22.011719 7.7792969 L 22.011719 3.75 L 13.953125 3.75 z M 26.041016 3.75 L 26.041016 7.7792969 L 34.099609 7.7792969 L 34.099609 3.75 L 26.041016 3.75 z M 38.128906 3.75 L 38.128906 7.7792969 L 40.017578 7.7792969 L 40.066406 9.9765625 L 44.087891 9.8886719 L 44.007812 5.7265625 L 43.960938 3.75 L 41.994141 3.75 L 38.128906 3.75 z M 13.457031 11.482422 C 12.166059 11.482422 11.126953 12.521527 11.126953 13.8125 L 11.126953 34.027344 C 11.126953 35.318279 12.166059 36.357422 13.457031 36.357422 L 34.136719 36.357422 C 35.42769 36.357422 36.466797 35.318279 36.466797 34.027344 L 36.466797 13.8125 C 36.466797 12.521527 35.42769 11.482422 34.136719 11.482422 L 13.457031 11.482422 z M 3.7910156 13.587891 L 3.7910156 21.646484 L 7.8222656 21.646484 L 7.8222656 13.587891 L 3.7910156 13.587891 z M 13.664062 13.935547 L 17.666016 13.935547 L 17.666016 33.949219 L 13.664062 33.949219 L 13.664062 13.935547 z M 20.621094 13.935547 L 34 13.935547 L 34 16.572266 L 20.621094 16.572266 L 20.621094 13.935547 z M 40.056641 13.958984 L 40.056641 22.017578 L 44.087891 22.017578 L 44.087891 13.958984 L 40.056641 13.958984 z M 20.621094 19.384766 L 34 19.384766 L 34 33.882812 L 20.621094 33.882812 L 20.621094 19.384766 z M 22.767578 21.708984 L 22.767578 31.611328 L 32.015625 31.611328 L 32.015625 21.708984 L 22.767578 21.708984 z M 3.7910156 25.677734 L 3.7910156 33.736328 L 7.8222656 33.736328 L 7.8222656 25.677734 L 3.7910156 25.677734 z M 40.056641 26.046875 L 40.056641 34.105469 L 44.087891 34.105469 L 44.087891 26.046875 L 40.056641 26.046875 z M 7.8222656 37.726562 L 3.7988281 37.804688 L 3.8789062 42.070312 L 3.9257812 44.046875 L 5.8925781 44.046875 L 9.6542969 44.046875 L 9.6542969 40.015625 L 7.8691406 40.015625 L 7.8222656 37.726562 z M 40.056641 38.134766 L 40.056641 39.96875 L 37.822266 40.015625 L 37.900391 44.046875 L 42.119141 43.958984 L 44.087891 43.919922 L 44.087891 41.943359 L 44.087891 38.134766 L 40.056641 38.134766 z M 13.685547 40.015625 L 13.685547 44.046875 L 21.744141 44.046875 L 21.744141 40.015625 L 13.685547 40.015625 z M 25.773438 40.015625 L 25.773438 44.046875 L 33.832031 44.046875 L 33.832031 40.015625 L 25.773438 40.015625 z "
       transform="matrix(0.26458333,0,0,0.26458333,0,284.29997)"
       id="rect2455" />
  </g>
</svg>
