<?xml version="1.0" encoding="UTF-8" standalone="no"?>
<svg
   xmlns:dc="http://purl.org/dc/elements/1.1/"
   xmlns:cc="http://creativecommons.org/ns#"
   xmlns:rdf="http://www.w3.org/1999/02/22-rdf-syntax-ns#"
   xmlns:svg="http://www.w3.org/2000/svg"
   xmlns="http://www.w3.org/2000/svg"
   xmlns:sodipodi="http://sodipodi.sourceforge.net/DTD/sodipodi-0.dtd"
   xmlns:inkscape="http://www.inkscape.org/namespaces/inkscape"
   width="48"
   height="48"
   viewBox="0 0 48 48"
   version="1.1"
   id="svg6"
   sodipodi:docname="qa_cohort_48px.svg"
   inkscape:version="0.92.4 (5da689c313, 2019-01-14)">
  <metadata
     id="metadata12">
    <rdf:RDF>
      <cc:Work
         rdf:about="">
        <dc:format>image/svg+xml</dc:format>
        <dc:type
           rdf:resource="http://purl.org/dc/dcmitype/StillImage" />
      </cc:Work>
    </rdf:RDF>
  </metadata>
  <defs
     id="defs10" />
  <sodipodi:namedview
     pagecolor="#ffffff"
     bordercolor="#666666"
     borderopacity="1"
     objecttolerance="10"
     gridtolerance="10"
     guidetolerance="10"
     inkscape:pageopacity="0"
     inkscape:pageshadow="2"
     inkscape:window-width="1870"
     inkscape:window-height="1016"
     id="namedview8"
     showgrid="false"
     inkscape:zoom="9.8333333"
     inkscape:cx="8.8972365"
     inkscape:cy="16.405645"
     inkscape:window-x="50"
     inkscape:window-y="27"
     inkscape:window-maximized="1"
     inkscape:current-layer="svg6" />
  <path
     d="M0 0h48v48H0z"
     fill="none"
     id="path2" />
  <g
     id="g836"
     transform="matrix(0.95338983,0,0,0.95338983,1.101832,1.0480675)"
     style="stroke-width:0.79999995">
    <path
       id="path822"
       d="M 0,0 H 48 V 48 H 0 Z"
       inkscape:connector-curvature="0"
       style="fill:none;stroke-width:0.79999995" />
    <path
       id="path824"
       d="m 32,22 c 3.31,0 5.98,-2.69 5.98,-6 0,-3.31 -2.67,-6 -5.98,-6 -3.31,0 -6,2.69 -6,6 0,3.31 2.69,6 6,6 z m -16,0 c 3.31,0 5.98,-2.69 5.98,-6 0,-3.31 -2.67,-6 -5.98,-6 -3.31,0 -6,2.69 -6,6 0,3.31 2.69,6 6,6 z m 0,4 C 11.33,26 2,28.34 2,33 v 5 h 28 v -5 c 0,-4.66 -9.33,-7 -14,-7 z m 16,0 c -0.58,0 -1.23,0.04 -1.93,0.11 C 32.39,27.78 34,30.03 34,33 v 5 h 12 v -5 c 0,-4.66 -9.33,-7 -14,-7 z"
       inkscape:connector-curvature="0"
       style="stroke-width:0.79999995" />
  </g>
</svg>
