<?xml version="1.0" encoding="UTF-8" standalone="no"?>
<svg
   xmlns:dc="http://purl.org/dc/elements/1.1/"
   xmlns:cc="http://creativecommons.org/ns#"
   xmlns:rdf="http://www.w3.org/1999/02/22-rdf-syntax-ns#"
   xmlns:svg="http://www.w3.org/2000/svg"
   xmlns="http://www.w3.org/2000/svg"
   xmlns:sodipodi="http://sodipodi.sourceforge.net/DTD/sodipodi-0.dtd"
   xmlns:inkscape="http://www.inkscape.org/namespaces/inkscape"
   width="48"
   height="48"
   viewBox="0 0 48 48"
   version="1.1"
   id="svg6"
   sodipodi:docname="qa_cohort_48px.svg"
   inkscape:version="0.92.4 (5da689c313, 2019-01-14)">
  <metadata
     id="metadata12">
    <rdf:RDF>
      <cc:Work
         rdf:about="">
        <dc:format>image/svg+xml</dc:format>
        <dc:type
           rdf:resource="http://purl.org/dc/dcmitype/StillImage" />
        <dc:title />
      </cc:Work>
    </rdf:RDF>
  </metadata>
  <defs
     id="defs10" />
  <sodipodi:namedview
     pagecolor="#ffffff"
     bordercolor="#666666"
     borderopacity="1"
     objecttolerance="10"
     gridtolerance="10"
     guidetolerance="10"
     inkscape:pageopacity="0"
     inkscape:pageshadow="2"
     inkscape:window-width="1870"
     inkscape:window-height="1016"
     id="namedview8"
     showgrid="false"
     inkscape:zoom="9.8333333"
     inkscape:cx="19.603134"
     inkscape:cy="16.640589"
     inkscape:window-x="50"
     inkscape:window-y="27"
     inkscape:window-maximized="1"
     inkscape:current-layer="svg6" />
  <path
     inkscape:connector-curvature="0"
     style="stroke:none;stroke-width:0.86652535"
     d="m 11.841242,12.397802 c -2.857686,0 -5.1722599,2.314576 -5.1722599,5.17226 0,2.851218 2.3145739,5.172259 5.1722599,5.172259 2.857684,0 5.172258,-2.321041 5.172258,-5.172259 0,-2.857684 -2.314575,-5.17226 -5.172258,-5.17226 z m 24.114129,0 c -2.857682,0 -5.172259,2.314576 -5.172259,5.17226 0,2.851218 2.314577,5.172259 5.172259,5.172259 2.857684,0 5.172259,-2.321041 5.172259,-5.172259 0,-2.857684 -2.314574,-5.17226 -5.172259,-5.17226 z m -12.034666,4.074682 c -2.857683,0 -5.172258,2.314576 -5.172258,5.172259 0,2.851219 2.314575,5.17226 5.172258,5.17226 2.857686,0 5.17226,-2.321041 5.17226,-5.17226 0,-2.857683 -2.314574,-5.172259 -5.17226,-5.172259 z M 11.841242,25.32845 c -3.4460325,0 -10.344519,1.726229 -10.344519,5.17226 v 2.586129 h 10.802691 c 0.29335,-0.749645 0.784449,-1.402251 1.348045,-1.922289 0.911002,-0.840591 2.033139,-1.442388 3.227571,-1.920252 1.358551,-0.543521 2.75846,-0.868399 4.099117,-1.071105 -2.132419,-1.894529 -6.578409,-2.844743 -9.132905,-2.844743 z m 24.114129,0 c -2.55236,0 -6.992289,0.949307 -9.126797,2.84067 1.352545,0.202281 2.766324,0.526483 4.137807,1.075178 1.194432,0.477864 2.31657,1.079661 3.227571,1.920252 0.563598,0.520038 1.054696,1.172644 1.348045,1.922289 H 46.299889 V 30.50071 c 0,-3.446031 -6.898487,-5.17226 -10.344518,-5.17226 z m -12.034666,4.074681 c -3.446029,0 -10.344517,1.726228 -10.344517,5.17226 v 2.586129 h 20.689035 v -2.586129 c 0,-3.446032 -6.898487,-5.17226 -10.344518,-5.17226 z"
     id="path857-3" />
</svg>
