<?xml version="1.0" encoding="UTF-8" standalone="no"?>
<!-- Created with Inkscape (http://www.inkscape.org/) -->

<svg
   xmlns:dc="http://purl.org/dc/elements/1.1/"
   xmlns:cc="http://creativecommons.org/ns#"
   xmlns:rdf="http://www.w3.org/1999/02/22-rdf-syntax-ns#"
   xmlns:svg="http://www.w3.org/2000/svg"
   xmlns="http://www.w3.org/2000/svg"
   xmlns:sodipodi="http://sodipodi.sourceforge.net/DTD/sodipodi-0.dtd"
   xmlns:inkscape="http://www.inkscape.org/namespaces/inkscape"
   width="48"
   height="48"
   viewBox="0 0 12.7 12.7"
   version="1.1"
   id="svg8"
   inkscape:version="0.92.4 (5da689c313, 2019-01-14)"
   sodipodi:docname="qa_location_48px.svg">
  <defs
     id="defs2" />
  <sodipodi:namedview
     id="base"
     pagecolor="#ffffff"
     bordercolor="#666666"
     borderopacity="1.0"
     inkscape:pageopacity="0.0"
     inkscape:pageshadow="2"
     inkscape:zoom="15.839192"
     inkscape:cx="29.25857"
     inkscape:cy="25.489437"
     inkscape:document-units="mm"
     inkscape:current-layer="layer1"
     showgrid="false"
     units="px"
     inkscape:window-width="1870"
     inkscape:window-height="1016"
     inkscape:window-x="50"
     inkscape:window-y="27"
     inkscape:window-maximized="1" />
  <metadata
     id="metadata5">
    <rdf:RDF>
      <cc:Work
         rdf:about="">
        <dc:format>image/svg+xml</dc:format>
        <dc:type
           rdf:resource="http://purl.org/dc/dcmitype/StillImage" />
        <dc:title />
      </cc:Work>
    </rdf:RDF>
  </metadata>
  <g
     inkscape:label="Layer 1"
     inkscape:groupmode="layer"
     id="layer1"
     transform="translate(0,-284.29998)">
    <rect
       style="opacity:1;fill:#ffffff;fill-opacity:1;fill-rule:nonzero;stroke:none;stroke-width:0.26458332;stroke-opacity:1;paint-order:markers stroke fill"
       id="rect815"
       width="0.14174107"
       height="0.094494052"
       x="18.757069"
       y="285.0701" />
    <path
       style="opacity:1;fill-opacity:1;fill-rule:nonzero;stroke:none;stroke-width:0.26458332;stroke-opacity:1;paint-order:markers stroke fill"
       d="m 0.93960607,285.81774 v 9.68004 H 3.2838123 v -2.51321 h 2.759264 v 2.51321 H 8.4106452 C 7.6848164,294.54523 6.7223065,293.11322 6.3870524,291.81992 H 5.4883406 v -1.92368 h 0.9772495 c 0.1455332,-0.38261 0.3651856,-0.72816 0.6437123,-1.01801 H 5.4883406 v -1.92368 h 1.9236805 v 1.6488 c 0.352461,-0.27944 0.7681068,-0.48187 1.2228049,-0.58158 v -2.20403 z m 1.08610923,1.13681 H 3.949396 v 1.92368 H 2.0257153 Z m 0,2.94169 H 3.949396 v 1.92368 H 2.0257153 Z"
       id="rect842"
       inkscape:connector-curvature="0" />
    <path
       style="fill:none;stroke-width:0.26458332"
       inkscape:connector-curvature="0"
       d="M -0.79233853,285.21034 H 11.907661 v 12.7 H -0.79233853 Z"
       id="path828-6" />
    <g
       id="g840"
       transform="matrix(0.158612,0,0,0.158612,5.5217493,288.62766)"
       style="stroke-width:1.66811669">
      <path
         id="path826"
         d="m 25.070073,1.5031638 c -7.73,0 -14,6.27 -14,14.0000002 0,10.5 14,26 14,26 0,0 14,-15.5 14,-26 0,-7.7300002 -6.27,-14.0000002 -14,-14.0000002 z m 0,19.0000002 c -2.76,0 -5,-2.24 -5,-5 0,-2.76 2.24,-5 5,-5 2.76,0 5,2.24 5,5 0,2.76 -2.24,5 -5,5 z"
         inkscape:connector-curvature="0"
         style="stroke-width:1.66811669" />
      <path
         id="path828"
         d="M 0,0 H 48 V 48 H 0 Z"
         inkscape:connector-curvature="0"
         style="fill:none;stroke-width:1.66811669" />
    </g>
  </g>
</svg>
