<?xml version="1.0" encoding="UTF-8" standalone="no"?>
<svg
   xmlns:dc="http://purl.org/dc/elements/1.1/"
   xmlns:cc="http://creativecommons.org/ns#"
   xmlns:rdf="http://www.w3.org/1999/02/22-rdf-syntax-ns#"
   xmlns:svg="http://www.w3.org/2000/svg"
   xmlns="http://www.w3.org/2000/svg"
   xmlns:sodipodi="http://sodipodi.sourceforge.net/DTD/sodipodi-0.dtd"
   xmlns:inkscape="http://www.inkscape.org/namespaces/inkscape"
   width="48"
   height="48"
   viewBox="0 0 48 48"
   version="1.1"
   id="svg6"
   sodipodi:docname="qa_question_manage_48px.svg"
   inkscape:version="0.92.4 (5da689c313, 2019-01-14)">
  <metadata
     id="metadata12">
    <rdf:RDF>
      <cc:Work
         rdf:about="">
        <dc:format>image/svg+xml</dc:format>
        <dc:type
           rdf:resource="http://purl.org/dc/dcmitype/StillImage" />
        <dc:title></dc:title>
      </cc:Work>
    </rdf:RDF>
  </metadata>
  <defs
     id="defs10" />
  <sodipodi:namedview
     pagecolor="#ffffff"
     bordercolor="#666666"
     borderopacity="1"
     objecttolerance="10"
     gridtolerance="10"
     guidetolerance="10"
     inkscape:pageopacity="0"
     inkscape:pageshadow="2"
     inkscape:window-width="1870"
     inkscape:window-height="1016"
     id="namedview8"
     showgrid="false"
     inkscape:zoom="9.8333333"
     inkscape:cx="-1.8163815"
     inkscape:cy="10.126513"
     inkscape:window-x="50"
     inkscape:window-y="27"
     inkscape:window-maximized="1"
     inkscape:current-layer="g941"
     showguides="false" />
  <path
     d="M0 0h48v48H0z"
     fill="none"
     id="path2" />
  <path
     d="m 42.484203,14.704576 c 0.0442,-0.353627 0.07736,-0.712779 0.07736,-1.077457 0,-0.364678 -0.03316,-0.72383 -0.07736,-1.077457 l 2.337255,-1.828916 c 0.209966,-0.165763 0.270745,-0.464136 0.132611,-0.707254 l -2.21017,-3.8291192 c -0.138135,-0.237593 -0.425458,-0.33705 -0.674101,-0.237593 l -2.751661,1.11061 c -0.56912,-0.436508 -1.193493,-0.806712 -1.867594,-1.088508 L 37.036137,3.0404068 C 36.986407,2.7807118 36.759865,2.5762709 36.483594,2.5762709 h -4.420339 c -0.276271,0 -0.502814,0.2044409 -0.547018,0.4641359 l -0.414405,2.928475 c -0.674102,0.281796 -1.298475,0.646475 -1.867595,1.088508 l -2.75166,-1.11061 c -0.248644,-0.09393 -0.535967,0 -0.674102,0.237593 l -2.21017,3.8291192 c -0.138134,0.237593 -0.07736,0.535966 0.132611,0.707254 l 2.331728,1.828916 c -0.0442,0.353627 -0.07736,0.712779 -0.07736,1.077457 0,0.364678 0.03315,0.72383 0.07736,1.077457 l -2.331728,1.828916 c -0.209966,0.165763 -0.270745,0.464136 -0.132611,0.707254 l 2.21017,3.829119 c 0.138135,0.237593 0.425458,0.33705 0.674102,0.237593 l 2.75166,-1.11061 c 0.56912,0.436508 1.193493,0.806712 1.867595,1.088508 l 0.414405,2.928475 c 0.0442,0.259695 0.270747,0.464136 0.547018,0.464136 h 4.420339 c 0.276271,0 0.502813,-0.204441 0.547016,-0.464136 l 0.414407,-2.928475 c 0.674102,-0.281796 1.298475,-0.646475 1.867593,-1.088508 l 2.751661,1.11061 c 0.248645,0.09393 0.535966,0 0.674102,-0.237593 l 2.210169,-3.829119 c 0.138136,-0.237593 0.07736,-0.535966 -0.132609,-0.707254 z m -8.210779,2.790339 c -2.138339,0 -3.867796,-1.729457 -3.867796,-3.867796 0,-2.138339 1.729457,-3.8677962 3.867796,-3.8677962 2.13834,0 3.867797,1.7294572 3.867797,3.8677962 0,2.138339 -1.729457,3.867796 -3.867797,3.867796 z"
     id="path4"
     inkscape:connector-curvature="0"
     style="stroke-width:0.55254239" />
  <g
     id="g941"
     transform="translate(36.835153,4.9440716)">
    <path
       id="path927"
       d="M 0,0 H 48 V 48 H 0 Z"
       inkscape:connector-curvature="0"
       style="fill:none" />
    <path
       style="opacity:1;fill-opacity:1;stroke:none;stroke-width:2;stroke-linecap:round;stroke-miterlimit:4;stroke-dasharray:none;stroke-opacity:1;paint-order:markers stroke fill"
       d="m -19.715912,16.075848 c -8.242983,-2.52e-4 -14.92555,5.224798 -14.926018,11.670603 0.0026,3.083166 1.56533,6.040246 4.346772,8.225533 -0.726838,1.354406 -2.343699,2.790173 -5.634705,4.979285 0.152174,1.42e-4 0.303395,-0.0019 0.453578,-0.0057 3.485041,-0.08379 6.446361,-1.16647 9.450904,-2.637322 1.974129,0.726163 4.127838,1.1051 6.309469,1.110103 8.243136,-3.21e-4 14.9251371,-5.226073 14.9246171,-11.671992 C -4.7917583,21.301036 -11.473476,16.076127 -19.715912,16.07579 Z m 0.261786,2.456723 c 1.029993,0 1.879773,0.145907 2.549267,0.438171 0.669495,0.274947 1.201087,0.625881 1.595916,1.055479 0.394831,0.429598 0.670059,0.902573 0.824558,1.418054 0.154498,0.515539 0.230988,1.013929 0.230988,1.495057 0,0.584275 -0.111414,1.108106 -0.334582,1.572057 -0.206,0.463952 -0.471793,0.894026 -0.797959,1.289269 -0.326162,0.395213 -0.67788,0.773026 -1.055545,1.133858 -0.377664,0.343683 -0.729381,0.704036 -1.055544,1.082074 -0.326164,0.36086 -0.601391,0.748061 -0.824556,1.160481 -0.205998,0.412392 -0.309384,0.875921 -0.309384,1.391458 v 0.310792 c 0,0.103182 0.0094,0.206068 0.02659,0.309356 h -2.678056 c -0.03432,-0.172051 -0.05984,-0.352819 -0.077,-0.54174 -0.01721,-0.206349 -0.02659,-0.395269 -0.02659,-0.566957 0,-0.567014 0.09535,-1.073444 0.284186,-1.520216 0.188833,-0.446803 0.429132,-0.859475 0.720963,-1.237485 0.29183,-0.378036 0.600588,-0.730406 0.926751,-1.056884 0.343332,-0.326505 0.660119,-0.653405 0.951948,-0.979883 0.291834,-0.326505 0.532133,-0.661472 0.720966,-1.0051 0.188832,-0.343683 0.284183,-0.721468 0.284183,-1.133887 0,-0.567069 -0.19734,-1.030628 -0.59217,-1.391459 -0.377662,-0.378067 -0.953614,-0.568334 -1.726109,-0.568334 -0.600828,0 -1.17538,0.07759 -1.724707,0.232494 -0.54933,0.137473 -1.123884,0.369182 -1.724712,0.695717 l -0.876346,-2.397938 c 0.635161,-0.36086 1.356059,-0.64351 2.162887,-0.84972 0.823993,-0.223217 1.665741,-0.334573 2.524067,-0.334573 z m -0.411578,14.510898 c 0.583662,0 1.072293,0.196791 1.467124,0.592176 0.394829,0.378008 0.592169,0.868414 0.592169,1.469838 0,0.601396 -0.197341,1.090368 -0.592169,1.468432 -0.394831,0.378037 -0.883462,0.568335 -1.467124,0.568335 -0.566495,0 -1.056525,-0.190325 -1.468523,-0.568335 -0.39483,-0.378064 -0.592168,-0.867036 -0.59217,-1.468432 0,-0.601424 0.197341,-1.09183 0.59217,-1.469838 0.411998,-0.395245 0.902028,-0.592176 1.468523,-0.592176 z"
       id="path815"
       inkscape:connector-curvature="0" />
  </g>
</svg>
