<?xml version="1.0" encoding="UTF-8" standalone="no"?>
<svg
   xmlns:dc="http://purl.org/dc/elements/1.1/"
   xmlns:cc="http://creativecommons.org/ns#"
   xmlns:rdf="http://www.w3.org/1999/02/22-rdf-syntax-ns#"
   xmlns:svg="http://www.w3.org/2000/svg"
   xmlns="http://www.w3.org/2000/svg"
   xmlns:sodipodi="http://sodipodi.sourceforge.net/DTD/sodipodi-0.dtd"
   xmlns:inkscape="http://www.inkscape.org/namespaces/inkscape"
   width="48"
   height="48"
   viewBox="0 0 48 48"
   version="1.1"
   id="svg6"
   sodipodi:docname="qa_manage_roles_48px.svg"
   inkscape:version="0.92.4 (5da689c313, 2019-01-14)">
  <metadata
     id="metadata12">
    <rdf:RDF>
      <cc:Work
         rdf:about="">
        <dc:format>image/svg+xml</dc:format>
        <dc:type
           rdf:resource="http://purl.org/dc/dcmitype/StillImage" />
        <dc:title />
      </cc:Work>
    </rdf:RDF>
  </metadata>
  <defs
     id="defs10" />
  <sodipodi:namedview
     pagecolor="#ffffff"
     bordercolor="#666666"
     borderopacity="1"
     objecttolerance="10"
     gridtolerance="10"
     guidetolerance="10"
     inkscape:pageopacity="0"
     inkscape:pageshadow="2"
     inkscape:window-width="1870"
     inkscape:window-height="1016"
     id="namedview8"
     showgrid="false"
     inkscape:zoom="11.313709"
     inkscape:cx="28.274838"
     inkscape:cy="21.381895"
     inkscape:window-x="50"
     inkscape:window-y="1107"
     inkscape:window-maximized="1"
     inkscape:current-layer="g1171"
     showguides="false" />
  <path
     d="M0 0h48v48H0z"
     fill="none"
     id="path2" />
  <path
     d="m 42.484203,14.704576 c 0.0442,-0.353627 0.07736,-0.712779 0.07736,-1.077457 0,-0.364678 -0.03316,-0.72383 -0.07736,-1.077457 l 2.337255,-1.828916 c 0.209966,-0.165763 0.270745,-0.464136 0.132611,-0.707254 l -2.21017,-3.8291192 c -0.138135,-0.237593 -0.425458,-0.33705 -0.674101,-0.237593 l -2.751661,1.11061 c -0.56912,-0.436508 -1.193493,-0.806712 -1.867594,-1.088508 L 37.036137,3.0404068 C 36.986407,2.7807118 36.759865,2.5762709 36.483594,2.5762709 h -4.420339 c -0.276271,0 -0.502814,0.2044409 -0.547018,0.4641359 l -0.414405,2.928475 c -0.674102,0.281796 -1.298475,0.646475 -1.867595,1.088508 l -2.75166,-1.11061 c -0.248644,-0.09393 -0.535967,0 -0.674102,0.237593 l -2.21017,3.8291192 c -0.138134,0.237593 -0.07736,0.535966 0.132611,0.707254 l 2.331728,1.828916 c -0.0442,0.353627 -0.07736,0.712779 -0.07736,1.077457 0,0.364678 0.03315,0.72383 0.07736,1.077457 l -2.331728,1.828916 c -0.209966,0.165763 -0.270745,0.464136 -0.132611,0.707254 l 2.21017,3.829119 c 0.138135,0.237593 0.425458,0.33705 0.674102,0.237593 l 2.75166,-1.11061 c 0.56912,0.436508 1.193493,0.806712 1.867595,1.088508 l 0.414405,2.928475 c 0.0442,0.259695 0.270747,0.464136 0.547018,0.464136 h 4.420339 c 0.276271,0 0.502813,-0.204441 0.547016,-0.464136 l 0.414407,-2.928475 c 0.674102,-0.281796 1.298475,-0.646475 1.867593,-1.088508 l 2.751661,1.11061 c 0.248645,0.09393 0.535966,0 0.674102,-0.237593 l 2.210169,-3.829119 c 0.138136,-0.237593 0.07736,-0.535966 -0.132609,-0.707254 z m -8.210779,2.790339 c -2.138339,0 -3.867796,-1.729457 -3.867796,-3.867796 0,-2.138339 1.729457,-3.8677962 3.867796,-3.8677962 2.13834,0 3.867797,1.7294572 3.867797,3.8677962 0,2.138339 -1.729457,3.867796 -3.867797,3.867796 z"
     id="path4"
     inkscape:connector-curvature="0"
     style="stroke-width:0.55254239" />
  <g
     id="g1171">
    <path
       style="stroke:none;stroke-width:0.952169;stroke-linejoin:round;stroke-miterlimit:25;stroke-dasharray:none;stroke-opacity:1;paint-order:markers stroke fill"
       d="m 3.9857876,14.297442 c -1.0144995,-0.09819 -1.838671,1.088152 -1.838671,2.43941 v 8.547415 c -9.258e-4,0.153992 0,0.256522 0,0.395146 -4.167e-4,5.259273 4.2621551,9.523304 9.5214294,9.522887 5.25847,-7.18e-4 9.521845,-4.264416 9.521427,-9.522887 -8.2e-4,-0.202843 0,-0.244629 0,-0.395146 v -8.547415 c 0,-1.351258 -0.820888,-2.43941 -1.840129,-2.43941 l -7.752746,0.736343 z M 8.27845,19.965098 h 0.0015 c 0.4366526,-0.0103 0.8684073,0.09951 1.2466806,0.317867 0.7370874,0.425391 1.1902604,1.212186 1.1898144,2.063218 H 8.3353162 5.9542298 C 5.9537836,21.495151 6.4084126,20.708356 7.1455022,20.282965 7.4906129,20.083741 7.8800774,19.974642 8.27845,19.965098 Z m 6.664999,0 h 0.0015 c 0.436652,-0.0103 0.868407,0.09951 1.24668,0.317867 0.737089,0.425391 1.19026,1.212186 1.189814,2.063218 h -2.381121 -2.381087 c -4.46e-4,-0.851032 0.454184,-1.637827 1.191274,-2.063218 0.34511,-0.199224 0.734574,-0.308323 1.132946,-0.317867 z m 15.056398,4.864239 -6.577515,0.60803 c -0.02177,0.171813 0,0.359359 0,0.511796 -0.0034,6.240005 -4.489139,10.658415 -10.426912,11.363016 0.912721,4.422175 4.804826,8.420185 9.320211,8.422016 5.259272,4.17e-4 9.523303,-4.262156 9.522887,-9.521429 -0.0017,-0.155561 0,-0.268611 0,-0.396604 v -8.547415 c 0,-1.351256 -0.819431,-2.43941 -1.838671,-2.43941 z M 8.0976445,26.86777 h 3.5709015 3.569441 c -4.31e-4,1.27545 -0.680039,2.453645 -1.784722,3.091183 -1.104503,0.637446 -2.466397,0.637446 -3.5708993,0 C 8.7776844,29.321415 8.098076,28.14322 8.0976445,26.86777 Z m 15.1715875,3.629223 h 2.381085 2.381087 c 4.46e-4,0.851034 -0.454183,1.637828 -1.191272,2.06322 -0.736683,0.425492 -1.644403,0.425492 -2.381087,0 -0.737089,-0.425392 -1.19026,-1.212186 -1.189813,-2.06322 z m -0.918608,6.905588 c 0.65523,-0.01589 1.302937,0.149439 1.870751,0.4768 1.104526,0.638426 1.783987,1.816881 1.783262,3.092641 h -3.569442 -3.5709 c -3.02e-4,-1.276183 0.679404,-2.454737 1.784721,-3.092641 0.518369,-0.298808 1.10344,-0.463141 1.701608,-0.4768 z"
       id="path992-2"
       inkscape:connector-curvature="0"
       sodipodi:nodetypes="cscccccscccccccccccccccccccccccccccccccccccccccccccccccc" />
  </g>
</svg>
