<?xml version="1.0" encoding="UTF-8" standalone="no"?>
<svg
   xmlns:dc="http://purl.org/dc/elements/1.1/"
   xmlns:cc="http://creativecommons.org/ns#"
   xmlns:rdf="http://www.w3.org/1999/02/22-rdf-syntax-ns#"
   xmlns:svg="http://www.w3.org/2000/svg"
   xmlns="http://www.w3.org/2000/svg"
   xmlns:sodipodi="http://sodipodi.sourceforge.net/DTD/sodipodi-0.dtd"
   xmlns:inkscape="http://www.inkscape.org/namespaces/inkscape"
   width="48"
   height="48"
   viewBox="0 0 48 48"
   version="1.1"
   id="svg6"
   sodipodi:docname="qa_manage_roles_48px.svg"
   inkscape:version="0.92.4 (5da689c313, 2019-01-14)">
  <metadata
     id="metadata12">
    <rdf:RDF>
      <cc:Work
         rdf:about="">
        <dc:format>image/svg+xml</dc:format>
        <dc:type
           rdf:resource="http://purl.org/dc/dcmitype/StillImage" />
        <dc:title></dc:title>
      </cc:Work>
    </rdf:RDF>
  </metadata>
  <defs
     id="defs10" />
  <sodipodi:namedview
     pagecolor="#ffffff"
     bordercolor="#666666"
     borderopacity="1"
     objecttolerance="10"
     gridtolerance="10"
     guidetolerance="10"
     inkscape:pageopacity="0"
     inkscape:pageshadow="2"
     inkscape:window-width="1920"
     inkscape:window-height="1043"
     id="namedview8"
     showgrid="false"
     inkscape:zoom="16"
     inkscape:cx="26.905494"
     inkscape:cy="25.82887"
     inkscape:window-x="0"
     inkscape:window-y="0"
     inkscape:window-maximized="1"
     inkscape:current-layer="svg6"
     showguides="false" />
  <path
     d="M0 0h48v48H0z"
     fill="none"
     id="path2" />
  <path
     d="m 42.484203,14.704576 c 0.0442,-0.353627 0.07736,-0.712779 0.07736,-1.077457 0,-0.364678 -0.03316,-0.72383 -0.07736,-1.077457 l 2.337255,-1.828916 c 0.209966,-0.165763 0.270745,-0.464136 0.132611,-0.707254 l -2.21017,-3.8291192 c -0.138135,-0.237593 -0.425458,-0.33705 -0.674101,-0.237593 l -2.751661,1.11061 c -0.56912,-0.436508 -1.193493,-0.806712 -1.867594,-1.088508 L 37.036137,3.0404068 C 36.986407,2.7807118 36.759865,2.5762709 36.483594,2.5762709 h -4.420339 c -0.276271,0 -0.502814,0.2044409 -0.547018,0.4641359 l -0.414405,2.928475 c -0.674102,0.281796 -1.298475,0.646475 -1.867595,1.088508 l -2.75166,-1.11061 c -0.248644,-0.09393 -0.535967,0 -0.674102,0.237593 l -2.21017,3.8291192 c -0.138134,0.237593 -0.07736,0.535966 0.132611,0.707254 l 2.331728,1.828916 c -0.0442,0.353627 -0.07736,0.712779 -0.07736,1.077457 0,0.364678 0.03315,0.72383 0.07736,1.077457 l -2.331728,1.828916 c -0.209966,0.165763 -0.270745,0.464136 -0.132611,0.707254 l 2.21017,3.829119 c 0.138135,0.237593 0.425458,0.33705 0.674102,0.237593 l 2.75166,-1.11061 c 0.56912,0.436508 1.193493,0.806712 1.867595,1.088508 l 0.414405,2.928475 c 0.0442,0.259695 0.270747,0.464136 0.547018,0.464136 h 4.420339 c 0.276271,0 0.502813,-0.204441 0.547016,-0.464136 l 0.414407,-2.928475 c 0.674102,-0.281796 1.298475,-0.646475 1.867593,-1.088508 l 2.751661,1.11061 c 0.248645,0.09393 0.535966,0 0.674102,-0.237593 l 2.210169,-3.829119 c 0.138136,-0.237593 0.07736,-0.535966 -0.132609,-0.707254 z m -8.210779,2.790339 c -2.138339,0 -3.867796,-1.729457 -3.867796,-3.867796 0,-2.138339 1.729457,-3.8677962 3.867796,-3.8677962 2.13834,0 3.867797,1.7294572 3.867797,3.8677962 0,2.138339 -1.729457,3.867796 -3.867797,3.867796 z"
     id="path4"
     inkscape:connector-curvature="0"
     style="stroke-width:0.55254239" />
  <g
     id="g1171">
    <path
       id="path992-2"
       d="M 22.744141 25.691406 L 22.744141 26.269531 C 22.744141 26.322346 22.734356 26.371702 22.732422 26.423828 A 11.184829 11.678965 0 0 1 22.744141 26.755859 A 11.184829 11.678965 0 0 1 12.822266 38.353516 A 9.05983 9.05983 0 0 0 21.691406 45.582031 A 9.05983 9.05983 0 0 0 30.751953 36.521484 A 9.05983 9.05983 0 0 0 30.742188 36.267578 C 30.743887 36.225948 30.751953 36.186728 30.751953 36.144531 L 30.751953 28.011719 C 30.751953 26.726006 29.971754 25.691406 29.001953 25.691406 L 22.744141 25.691406 z M 22.597656 31.083984 L 24.863281 31.083984 L 27.128906 31.083984 A 2.2649574 2.2649574 0 0 1 25.996094 33.046875 A 2.2649574 2.2649574 0 0 1 23.730469 33.046875 A 2.2649574 2.2649574 0 0 1 22.597656 31.083984 z M 21.724609 37.654297 A 3.397436 3.3974357 0 0 1 23.503906 38.107422 A 3.397436 3.3974357 0 0 1 25.201172 41.050781 L 21.804688 41.050781 L 18.40625 41.050781 A 3.397436 3.3974357 0 0 1 20.105469 38.107422 A 3.397436 3.3974357 0 0 1 21.724609 37.654297 z "
       style="stroke:none;stroke-width:0.90598291;stroke-linejoin:round;stroke-miterlimit:25;stroke-dasharray:none;stroke-opacity:1;paint-order:markers stroke fill" />
    <path
       id="path992"
       d="M 4.25 15.669922 C 3.280199 15.669922 2.5 16.704521 2.5 17.990234 L 2.5 26.123047 C 2.5 26.174617 2.5092398 26.222717 2.5117188 26.273438 A 9.0598291 9.0598291 0 0 0 2.5 26.5 A 9.0598291 9.0598291 0 0 0 11.560547 35.560547 A 9.0598291 9.0598291 0 0 0 20.619141 26.5 A 9.0598291 9.0598291 0 0 0 20.611328 26.240234 C 20.612828 26.200594 20.619141 26.163204 20.619141 26.123047 L 20.619141 17.990234 C 20.619141 16.704521 19.838942 15.669922 18.869141 15.669922 L 4.25 15.669922 z M 8.3339844 21.0625 A 2.2649572 2.2649572 0 0 1 8.3359375 21.0625 A 2.2649572 2.2649572 0 0 1 9.5214844 21.365234 A 2.2649572 2.2649572 0 0 1 10.654297 23.328125 L 8.3886719 23.328125 L 6.1230469 23.328125 A 2.2649572 2.2649572 0 0 1 7.2558594 21.365234 A 2.2649572 2.2649572 0 0 1 8.3339844 21.0625 z M 14.675781 21.0625 A 2.2649572 2.2649572 0 0 1 14.677734 21.0625 A 2.2649572 2.2649572 0 0 1 15.863281 21.365234 A 2.2649572 2.2649572 0 0 1 16.996094 23.328125 L 14.730469 23.328125 L 12.464844 23.328125 A 2.2649572 2.2649572 0 0 1 13.597656 21.365234 A 2.2649572 2.2649572 0 0 1 14.675781 21.0625 z M 8.1621094 27.630859 L 11.560547 27.630859 L 14.957031 27.630859 A 3.3974359 3.3974357 0 0 1 13.257812 30.572266 A 3.3974359 3.3974357 0 0 1 9.8613281 30.572266 A 3.3974359 3.3974357 0 0 1 8.1621094 27.630859 z "
       style="stroke:none;stroke-width:0.90598291;stroke-linejoin:round;stroke-miterlimit:25;stroke-dasharray:none;stroke-opacity:1;paint-order:markers stroke fill" />
  </g>
</svg>
