<?xml version="1.0" encoding="UTF-8" standalone="no"?>
<svg
   xmlns:dc="http://purl.org/dc/elements/1.1/"
   xmlns:cc="http://creativecommons.org/ns#"
   xmlns:rdf="http://www.w3.org/1999/02/22-rdf-syntax-ns#"
   xmlns:svg="http://www.w3.org/2000/svg"
   xmlns="http://www.w3.org/2000/svg"
   xmlns:sodipodi="http://sodipodi.sourceforge.net/DTD/sodipodi-0.dtd"
   xmlns:inkscape="http://www.inkscape.org/namespaces/inkscape"
   width="48"
   height="48"
   viewBox="0 0 48 48"
   version="1.1"
   id="svg6"
   sodipodi:docname="qa_question_category_manage_48px.svg"
   inkscape:version="0.92.4 (5da689c313, 2019-01-14)">
  <metadata
     id="metadata12">
    <rdf:RDF>
      <cc:Work
         rdf:about="">
        <dc:format>image/svg+xml</dc:format>
        <dc:type
           rdf:resource="http://purl.org/dc/dcmitype/StillImage" />
        <dc:title></dc:title>
      </cc:Work>
    </rdf:RDF>
  </metadata>
  <defs
     id="defs10" />
  <sodipodi:namedview
     pagecolor="#ffffff"
     bordercolor="#666666"
     borderopacity="1"
     objecttolerance="10"
     gridtolerance="10"
     guidetolerance="10"
     inkscape:pageopacity="0"
     inkscape:pageshadow="2"
     inkscape:window-width="1870"
     inkscape:window-height="1016"
     id="namedview8"
     showgrid="false"
     inkscape:zoom="9.8333333"
     inkscape:cx="-1.8163815"
     inkscape:cy="10.126513"
     inkscape:window-x="50"
     inkscape:window-y="27"
     inkscape:window-maximized="1"
     inkscape:current-layer="g941"
     showguides="false" />
  <path
     d="M0 0h48v48H0z"
     fill="none"
     id="path2" />
  <path
     d="m 42.484203,14.704576 c 0.0442,-0.353627 0.07736,-0.712779 0.07736,-1.077457 0,-0.364678 -0.03316,-0.72383 -0.07736,-1.077457 l 2.337255,-1.828916 c 0.209966,-0.165763 0.270745,-0.464136 0.132611,-0.707254 l -2.21017,-3.8291192 c -0.138135,-0.237593 -0.425458,-0.33705 -0.674101,-0.237593 l -2.751661,1.11061 c -0.56912,-0.436508 -1.193493,-0.806712 -1.867594,-1.088508 L 37.036137,3.0404068 C 36.986407,2.7807118 36.759865,2.5762709 36.483594,2.5762709 h -4.420339 c -0.276271,0 -0.502814,0.2044409 -0.547018,0.4641359 l -0.414405,2.928475 c -0.674102,0.281796 -1.298475,0.646475 -1.867595,1.088508 l -2.75166,-1.11061 c -0.248644,-0.09393 -0.535967,0 -0.674102,0.237593 l -2.21017,3.8291192 c -0.138134,0.237593 -0.07736,0.535966 0.132611,0.707254 l 2.331728,1.828916 c -0.0442,0.353627 -0.07736,0.712779 -0.07736,1.077457 0,0.364678 0.03315,0.72383 0.07736,1.077457 l -2.331728,1.828916 c -0.209966,0.165763 -0.270745,0.464136 -0.132611,0.707254 l 2.21017,3.829119 c 0.138135,0.237593 0.425458,0.33705 0.674102,0.237593 l 2.75166,-1.11061 c 0.56912,0.436508 1.193493,0.806712 1.867595,1.088508 l 0.414405,2.928475 c 0.0442,0.259695 0.270747,0.464136 0.547018,0.464136 h 4.420339 c 0.276271,0 0.502813,-0.204441 0.547016,-0.464136 l 0.414407,-2.928475 c 0.674102,-0.281796 1.298475,-0.646475 1.867593,-1.088508 l 2.751661,1.11061 c 0.248645,0.09393 0.535966,0 0.674102,-0.237593 l 2.210169,-3.829119 c 0.138136,-0.237593 0.07736,-0.535966 -0.132609,-0.707254 z m -8.210779,2.790339 c -2.138339,0 -3.867796,-1.729457 -3.867796,-3.867796 0,-2.138339 1.729457,-3.8677962 3.867796,-3.8677962 2.13834,0 3.867797,1.7294572 3.867797,3.8677962 0,2.138339 -1.729457,3.867796 -3.867797,3.867796 z"
     id="path4"
     inkscape:connector-curvature="0"
     style="stroke-width:0.55254239" />
  <g
     id="g941"
     transform="translate(36.835153,4.9440716)">
    <path
       id="path927"
       d="M 0,0 H 48 V 48 H 0 Z"
       inkscape:connector-curvature="0"
       style="fill:none" />
    <path
       style="opacity:1;fill-opacity:1;stroke:none;stroke-width:1.99999988;stroke-linecap:round;stroke-miterlimit:4;stroke-dasharray:none;stroke-opacity:1;paint-order:markers stroke fill"
       d="m -6.400621,25.480195 c 0.1256641,1.602479 -0.5270552,3.587316 -1.5707521,5.210981 -0.9253738,1.439591 -2.4633089,2.696265 -4.0453149,3.746119 -2.058891,1.366302 -3.97391,1.866399 -7.179663,2.257872 1.77972,2.032883 4.767216,3.368455 8.15563,3.368577 1.4441875,-0.0025 2.8697615,-0.25456 4.1765891,-0.735389 1.9889353,0.973638 3.9495839,1.690614 6.25659988,1.746099 0.099445,0.0024 0.19880067,0.003 0.29949698,0.003 -2.17856486,-1.449094 -3.24808326,-2.400539 -3.72923226,-3.297171 1.8412496,-1.446572 2.8748252,-3.403727 2.8765812,-5.444719 -2.073e-4,-2.871652 -2.2662439,-5.525692 -5.2399535,-6.85727 z"
       id="path815-3"
       inkscape:connector-curvature="0"
       sodipodi:nodetypes="cssccccccccc" />
    <path
       style="opacity:1;fill-opacity:1;stroke:none;stroke-width:1.99999988;stroke-linecap:round;stroke-miterlimit:4;stroke-dasharray:none;stroke-opacity:1;paint-order:markers stroke fill"
       d="m -21.145897,14.323421 c -7.520408,-2.14e-4 -13.617186,4.766828 -13.617612,10.647593 0.0024,2.812904 1.428113,5.510753 3.965736,7.504461 -0.663124,1.235699 -2.138253,2.545601 -5.140769,4.542816 0.138834,1.52e-4 0.276797,-0.0017 0.413815,-0.0062 3.179546,-0.07652 5.881278,-1.064184 8.622444,-2.406095 1.80108,0.662496 3.765994,1.00821 5.756386,1.012782 7.520547,-3.05e-4 13.6168071,-4.767955 13.6163328,-10.648842 -4.226e-4,-5.880274 -6.0964238,-10.647194 -13.6163328,-10.647529 z m 0.238839,2.241378 c 0.939702,0 1.714992,0.13292 2.3258,0.399737 0.610805,0.250597 1.095798,0.571008 1.456019,0.962999 0.360218,0.39193 0.61132,0.823434 0.752276,1.293743 0.140953,0.470343 0.21074,0.925015 0.21074,1.363986 0,0.533082 -0.101648,1.010985 -0.305253,1.434255 -0.187946,0.423301 -0.430438,0.81569 -0.728011,1.176282 -0.297574,0.360529 -0.618458,0.705237 -0.963017,1.034427 -0.344557,0.313399 -0.665443,0.642346 -0.963016,0.987236 -0.297572,0.329343 -0.548673,0.682496 -0.752276,1.058726 -0.187941,0.376261 -0.28226,0.799136 -0.28226,1.269539 v 0.283521 c 0,0.0939 0.0086,0.188101 0.02426,0.282303 h -2.443312 c -0.03132,-0.157308 -0.05458,-0.322025 -0.07024,-0.494212 -0.01573,-0.188405 -0.02426,-0.360652 -0.02426,-0.517321 0,-0.51726 0.08699,-0.979311 0.259273,-1.38691 0.172281,-0.407662 0.391516,-0.784106 0.657763,-1.128997 0.266245,-0.344921 0.547941,-0.666369 0.845514,-0.96425 0.313235,-0.298154 0.602253,-0.596158 0.868502,-0.893977 0.266248,-0.298156 0.485485,-0.603476 0.657764,-0.916965 0.172281,-0.3134 0.259274,-0.658259 0.259274,-1.034551 0,-0.517321 -0.180047,-0.940288 -0.540261,-1.269447 -0.344558,-0.344982 -0.870022,-0.518571 -1.574799,-0.518571 -0.54816,0 -1.072349,0.07073 -1.573524,0.21249 -0.501174,0.125603 -1.025362,0.336781 -1.573522,0.634723 l -0.799531,-2.187784 c 0.579483,-0.329007 1.237188,-0.587073 1.973289,-0.775204 0.751761,-0.203647 1.519723,-0.305381 2.30281,-0.305381 z m -0.375501,13.238923 c 0.532498,0 0.978297,0.179564 1.338517,0.540217 0.360219,0.34489 0.540259,0.792276 0.540259,1.341029 0,0.548659 -0.180045,0.994795 -0.540259,1.339686 -0.36022,0.344921 -0.806019,0.51851 -1.338517,0.51851 -0.516836,0 -0.963911,-0.173772 -1.339793,-0.51851 -0.36022,-0.344891 -0.540258,-0.791027 -0.540259,-1.339686 0,-0.548753 0.180042,-0.996139 0.540259,-1.341029 0.375882,-0.360562 0.822957,-0.540217 1.339793,-0.540217 z"
       id="path815"
       inkscape:connector-curvature="0" />
  </g>
</svg>
