<?xml version="1.0" encoding="UTF-8" standalone="no"?>
<svg
   xmlns:dc="http://purl.org/dc/elements/1.1/"
   xmlns:cc="http://creativecommons.org/ns#"
   xmlns:rdf="http://www.w3.org/1999/02/22-rdf-syntax-ns#"
   xmlns:svg="http://www.w3.org/2000/svg"
   xmlns="http://www.w3.org/2000/svg"
   xmlns:sodipodi="http://sodipodi.sourceforge.net/DTD/sodipodi-0.dtd"
   xmlns:inkscape="http://www.inkscape.org/namespaces/inkscape"
   width="48"
   height="48"
   viewBox="0 0 48 48"
   version="1.1"
   id="svg6"
   sodipodi:docname="qa_manage_courses_48px.svg"
   inkscape:version="0.92.4 (5da689c313, 2019-01-14)">
  <metadata
     id="metadata12">
    <rdf:RDF>
      <cc:Work
         rdf:about="">
        <dc:format>image/svg+xml</dc:format>
        <dc:type
           rdf:resource="http://purl.org/dc/dcmitype/StillImage" />
        <dc:title />
      </cc:Work>
    </rdf:RDF>
  </metadata>
  <defs
     id="defs10" />
  <sodipodi:namedview
     pagecolor="#ffffff"
     bordercolor="#666666"
     borderopacity="1"
     objecttolerance="10"
     gridtolerance="10"
     guidetolerance="10"
     inkscape:pageopacity="0"
     inkscape:pageshadow="2"
     inkscape:window-width="1870"
     inkscape:window-height="1016"
     id="namedview8"
     showgrid="false"
     inkscape:zoom="9.8333333"
     inkscape:cx="-19.663839"
     inkscape:cy="9.7197335"
     inkscape:window-x="50"
     inkscape:window-y="27"
     inkscape:window-maximized="1"
     inkscape:current-layer="g941"
     showguides="false" />
  <path
     d="M0 0h48v48H0z"
     fill="none"
     id="path2" />
  <path
     d="m 42.484203,14.704576 c 0.0442,-0.353627 0.07736,-0.712779 0.07736,-1.077457 0,-0.364678 -0.03316,-0.72383 -0.07736,-1.077457 l 2.337255,-1.828916 c 0.209966,-0.165763 0.270745,-0.464136 0.132611,-0.707254 l -2.21017,-3.8291192 c -0.138135,-0.237593 -0.425458,-0.33705 -0.674101,-0.237593 l -2.751661,1.11061 c -0.56912,-0.436508 -1.193493,-0.806712 -1.867594,-1.088508 L 37.036137,3.0404068 C 36.986407,2.7807118 36.759865,2.5762709 36.483594,2.5762709 h -4.420339 c -0.276271,0 -0.502814,0.2044409 -0.547018,0.4641359 l -0.414405,2.928475 c -0.674102,0.281796 -1.298475,0.646475 -1.867595,1.088508 l -2.75166,-1.11061 c -0.248644,-0.09393 -0.535967,0 -0.674102,0.237593 l -2.21017,3.8291192 c -0.138134,0.237593 -0.07736,0.535966 0.132611,0.707254 l 2.331728,1.828916 c -0.0442,0.353627 -0.07736,0.712779 -0.07736,1.077457 0,0.364678 0.03315,0.72383 0.07736,1.077457 l -2.331728,1.828916 c -0.209966,0.165763 -0.270745,0.464136 -0.132611,0.707254 l 2.21017,3.829119 c 0.138135,0.237593 0.425458,0.33705 0.674102,0.237593 l 2.75166,-1.11061 c 0.56912,0.436508 1.193493,0.806712 1.867595,1.088508 l 0.414405,2.928475 c 0.0442,0.259695 0.270747,0.464136 0.547018,0.464136 h 4.420339 c 0.276271,0 0.502813,-0.204441 0.547016,-0.464136 l 0.414407,-2.928475 c 0.674102,-0.281796 1.298475,-0.646475 1.867593,-1.088508 l 2.751661,1.11061 c 0.248645,0.09393 0.535966,0 0.674102,-0.237593 l 2.210169,-3.829119 c 0.138136,-0.237593 0.07736,-0.535966 -0.132609,-0.707254 z m -8.210779,2.790339 c -2.138339,0 -3.867796,-1.729457 -3.867796,-3.867796 0,-2.138339 1.729457,-3.8677962 3.867796,-3.8677962 2.13834,0 3.867797,1.7294572 3.867797,3.8677962 0,2.138339 -1.729457,3.867796 -3.867797,3.867796 z"
     id="path4"
     inkscape:connector-curvature="0"
     style="stroke-width:0.55254239" />
  <g
     id="g941"
     transform="translate(36.835153,4.9440716)">
    <path
       id="path927"
       d="M 0,0 H 48 V 48 H 0 Z"
       inkscape:connector-curvature="0"
       style="fill:none" />
    <g
       style="stroke-width:0.7411263"
       transform="matrix(1.3492976,0,0,1.3492976,-36.806385,12.779611)"
       id="g1173">
      <g
         style="stroke-width:0.7411263"
         id="Bounding_Box">
        <rect
           style="fill:none;stroke-width:0.7411263"
           y="0"
           x="0"
           width="24"
           height="24"
           id="rect1138" />
      </g>
      <g
         style="stroke-width:0.7411263"
         id="Flat">
        <g
           style="stroke-width:0.7411263"
           id="ui_x5F_spec_x5F_header_copy_2" />
        <g
           style="stroke-width:0.7411263"
           id="g1152">
          <path
             style="stroke-width:0.7411263"
             inkscape:connector-curvature="0"
             d="M 21,5 C 19.89,4.65 18.67,4.5 17.5,4.5 15.55,4.5 13.45,4.9 12,6 10.55,4.9 8.45,4.5 6.5,4.5 4.55,4.5 2.45,4.9 1,6 v 14.65 c 0,0.25 0.25,0.5 0.5,0.5 0.1,0 0.15,-0.05 0.25,-0.05 C 3.1,20.45 5.05,20 6.5,20 c 1.95,0 4.05,0.4 5.5,1.5 1.35,-0.85 3.8,-1.5 5.5,-1.5 1.65,0 3.35,0.3 4.75,1.05 0.1,0.05 0.15,0.05 0.25,0.05 0.25,0 0.5,-0.25 0.5,-0.5 V 6 C 22.4,5.55 21.75,5.25 21,5 Z m 0,13.5 C 19.9,18.15 18.7,18 17.5,18 15.8,18 13.35,18.65 12,19.5 V 8 c 1.35,-0.85 3.8,-1.5 5.5,-1.5 1.2,0 2.4,0.15 3.5,0.5 z"
             id="path1142" />
          <g
             style="stroke-width:0.7411263"
             id="g1150">
            <path
               style="stroke-width:0.7411263"
               inkscape:connector-curvature="0"
               d="m 17.5,10.5 c 0.88,0 1.73,0.09 2.5,0.26 V 9.24 C 19.21,9.09 18.36,9 17.5,9 15.8,9 14.26,9.29 13,9.83 v 1.66 c 1.13,-0.64 2.7,-0.99 4.5,-0.99 z"
               id="path1144" />
            <path
               style="stroke-width:0.7411263"
               inkscape:connector-curvature="0"
               d="m 13,12.49 v 1.66 c 1.13,-0.64 2.7,-0.99 4.5,-0.99 0.88,0 1.73,0.09 2.5,0.26 V 11.9 c -0.79,-0.15 -1.64,-0.24 -2.5,-0.24 -1.7,0 -3.24,0.3 -4.5,0.83 z"
               id="path1146" />
            <path
               style="stroke-width:0.7411263"
               inkscape:connector-curvature="0"
               d="m 17.5,14.33 c -1.7,0 -3.24,0.29 -4.5,0.83 v 1.66 c 1.13,-0.64 2.7,-0.99 4.5,-0.99 0.88,0 1.73,0.09 2.5,0.26 v -1.52 c -0.79,-0.16 -1.64,-0.24 -2.5,-0.24 z"
               id="path1148" />
          </g>
        </g>
      </g>
    </g>
  </g>
</svg>
