<?xml version="1.0" encoding="UTF-8" standalone="no"?>
<!-- Created with Inkscape (http://www.inkscape.org/) -->

<svg
   xmlns:dc="http://purl.org/dc/elements/1.1/"
   xmlns:cc="http://creativecommons.org/ns#"
   xmlns:rdf="http://www.w3.org/1999/02/22-rdf-syntax-ns#"
   xmlns:svg="http://www.w3.org/2000/svg"
   xmlns="http://www.w3.org/2000/svg"
   xmlns:sodipodi="http://sodipodi.sourceforge.net/DTD/sodipodi-0.dtd"
   xmlns:inkscape="http://www.inkscape.org/namespaces/inkscape"
   width="48"
   height="48"
   viewBox="0 0 12.7 12.7"
   version="1.1"
   id="svg8"
   inkscape:version="0.92.4 (5da689c313, 2019-01-14)"
   sodipodi:docname="qa_question_48px.svg">
  <defs
     id="defs2" />
  <sodipodi:namedview
     id="base"
     pagecolor="#ffffff"
     bordercolor="#666666"
     borderopacity="1.0"
     inkscape:pageopacity="0.0"
     inkscape:pageshadow="2"
     inkscape:zoom="12.652792"
     inkscape:cx="9.6557277"
     inkscape:cy="24.150181"
     inkscape:document-units="mm"
     inkscape:current-layer="layer1"
     showgrid="false"
     units="px"
     showguides="false"
     inkscape:window-width="1870"
     inkscape:window-height="1016"
     inkscape:window-x="50"
     inkscape:window-y="27"
     inkscape:window-maximized="1" />
  <metadata
     id="metadata5">
    <rdf:RDF>
      <cc:Work
         rdf:about="">
        <dc:format>image/svg+xml</dc:format>
        <dc:type
           rdf:resource="http://purl.org/dc/dcmitype/StillImage" />
        <dc:title />
      </cc:Work>
    </rdf:RDF>
  </metadata>
  <g
     inkscape:label="Layer 1"
     inkscape:groupmode="layer"
     id="layer1"
     transform="translate(0,-284.29996)">
    <path
       style="opacity:1;fill-opacity:1;stroke:none;stroke-width:0.52916664;stroke-linecap:round;stroke-miterlimit:4;stroke-dasharray:none;stroke-opacity:1;paint-order:markers stroke fill"
       d="m 6.3116454,286.19535 c -2.9320763,-9e-5 -5.3091037,1.85849 -5.3092702,4.1513 9.433e-4,1.0967 0.556797,2.14855 1.5461718,2.92587 -0.2585404,0.48177 -0.8336676,0.99248 -2.00429683,1.77116 0.0541286,5e-5 0.10791906,-6.9e-4 0.16133967,-0.002 1.23964916,-0.0298 2.29300806,-0.41492 3.36174096,-0.93811 0.7022094,0.2583 1.4682958,0.39309 2.2443146,0.39487 2.9321305,-1.2e-4 5.3089566,-1.85895 5.3087716,-4.1518 -1.65e-4,-2.29264 -2.3768897,-4.15117 -5.3087716,-4.15129 z m 0.093119,0.87387 c 0.366374,0 0.6686458,0.0519 0.9067887,0.15586 0.2381429,0.0978 0.4272332,0.22263 0.5676765,0.37544 0.1404433,0.15281 0.2383435,0.32105 0.2932997,0.50441 0.054956,0.18338 0.082164,0.36066 0.082164,0.5318 0,0.20783 -0.039631,0.39416 -0.1190129,0.55919 -0.073275,0.16503 -0.1678198,0.31801 -0.2838385,0.4586 -0.1160182,0.14058 -0.2411261,0.27497 -0.3754632,0.40332 -0.1343372,0.12225 -0.2594451,0.25043 -0.3754634,0.3849 -0.1160184,0.12836 -0.2139184,0.26609 -0.2932996,0.41279 -0.073274,0.14669 -0.1100494,0.31157 -0.1100494,0.49495 v 0.11055 c 0,0.0367 0.00334,0.0733 0.00946,0.11004 H 5.754426 c -0.012212,-0.0612 -0.021282,-0.1255 -0.027388,-0.1927 -0.00612,-0.0734 -0.00946,-0.1406 -0.00946,-0.20167 0,-0.20169 0.033917,-0.38183 0.1010862,-0.54075 0.067169,-0.15893 0.152645,-0.30572 0.2564503,-0.44018 0.103806,-0.13447 0.2136327,-0.25981 0.3296509,-0.37594 0.1221247,-0.11614 0.2348083,-0.23242 0.3386141,-0.34855 0.103806,-0.11614 0.189282,-0.23529 0.2564506,-0.35752 0.067169,-0.12225 0.1010861,-0.25663 0.1010861,-0.40333 0,-0.20171 -0.070195,-0.3666 -0.2106379,-0.49495 -0.1343371,-0.13448 -0.3392066,-0.20216 -0.6139871,-0.20216 -0.213718,0 -0.4180896,0.0276 -0.613489,0.0827 -0.1953995,0.0489 -0.3997711,0.13132 -0.6134891,0.24747 L 4.737589,287.49053 c 0.2259304,-0.12836 0.4823583,-0.2289 0.7693511,-0.30225 0.2930991,-0.0794 0.5925139,-0.11901 0.8978253,-0.11901 z m -0.1464009,5.16161 c 0.2076118,0 0.3814207,0.07 0.5218644,0.21064 0.1404429,0.13446 0.2106376,0.3089 0.2106376,0.52283 0,0.21392 -0.070195,0.38785 -0.2106376,0.52233 -0.1404437,0.13447 -0.3142526,0.20216 -0.5218644,0.20216 -0.2015055,0 -0.3758124,-0.0677 -0.522362,-0.20216 -0.1404434,-0.13448 -0.2106377,-0.30841 -0.210638,-0.52233 0,-0.21393 0.070195,-0.38837 0.210638,-0.52283 0.1465496,-0.14059 0.3208565,-0.21064 0.522362,-0.21064 z"
       id="path815"
       inkscape:connector-curvature="0" />
  </g>
</svg>
