<?xml version="1.0" encoding="UTF-8" standalone="no"?>
<!-- Created with Inkscape (http://www.inkscape.org/) -->

<svg
   xmlns:dc="http://purl.org/dc/elements/1.1/"
   xmlns:cc="http://creativecommons.org/ns#"
   xmlns:rdf="http://www.w3.org/1999/02/22-rdf-syntax-ns#"
   xmlns:svg="http://www.w3.org/2000/svg"
   xmlns="http://www.w3.org/2000/svg"
   xmlns:sodipodi="http://sodipodi.sourceforge.net/DTD/sodipodi-0.dtd"
   xmlns:inkscape="http://www.inkscape.org/namespaces/inkscape"
   width="48"
   height="48"
   viewBox="0 0 12.7 12.7"
   version="1.1"
   id="svg8"
   inkscape:version="0.92.4 (5da689c313, 2019-01-14)"
   sodipodi:docname="qa_question_category_48px.svg">
  <defs
     id="defs2" />
  <sodipodi:namedview
     id="base"
     pagecolor="#ffffff"
     bordercolor="#666666"
     borderopacity="1.0"
     inkscape:pageopacity="0.0"
     inkscape:pageshadow="2"
     inkscape:zoom="11.313709"
     inkscape:cx="33.392578"
     inkscape:cy="18.982422"
     inkscape:document-units="mm"
     inkscape:current-layer="layer1"
     showgrid="false"
     units="px"
     showguides="false"
     inkscape:window-width="1870"
     inkscape:window-height="1016"
     inkscape:window-x="50"
     inkscape:window-y="27"
     inkscape:window-maximized="1" />
  <metadata
     id="metadata5">
    <rdf:RDF>
      <cc:Work
         rdf:about="">
        <dc:format>image/svg+xml</dc:format>
        <dc:type
           rdf:resource="http://purl.org/dc/dcmitype/StillImage" />
        <dc:title />
      </cc:Work>
    </rdf:RDF>
  </metadata>
  <g
     inkscape:label="Layer 1"
     inkscape:groupmode="layer"
     id="layer1"
     transform="translate(0,-284.29996)">
    <path
       style="opacity:1;fill-opacity:1;stroke:none;stroke-width:0.52916664;stroke-linecap:round;stroke-miterlimit:4;stroke-dasharray:none;stroke-opacity:1;paint-order:markers stroke fill"
       d="m 10.148991,290.01188 c 0.04122,0.52564 -0.1728828,1.1767 -0.515233,1.70929 -0.3035384,0.47221 -0.8080068,0.88442 -1.3269318,1.22879 -0.6753511,0.44817 -1.3035092,0.61221 -2.3550503,0.74062 0.583778,0.66682 1.5637269,1.10491 2.675184,1.10495 0.4737182,-8.1e-4 0.9413304,-0.0835 1.3699918,-0.24122 0.6524043,0.31937 1.2955303,0.55455 2.0522703,0.57275 0.03262,8e-4 0.06521,0.001 0.09824,0.001 -0.714606,-0.47534 -1.065426,-0.78743 -1.223251,-1.08154 0.603961,-0.4745 0.942991,-1.11648 0.943567,-1.78596 -6.8e-5,-0.94195 -0.743366,-1.81252 -1.718793,-2.2493 z"
       id="path815-3"
       inkscape:connector-curvature="0"
       sodipodi:nodetypes="cssccccccccc" />
    <path
       style="opacity:1;fill-opacity:1;stroke:none;stroke-width:0.52916664;stroke-linecap:round;stroke-miterlimit:4;stroke-dasharray:none;stroke-opacity:1;paint-order:markers stroke fill"
       d="m 5.3122917,286.35227 c -2.4668206,-7e-5 -4.46666667,1.5636 -4.46680676,3.49259 7.9372e-4,0.92268 0.46844576,1.80762 1.30082876,2.46159 -0.2175159,0.40533 -0.7013831,0.835 -1.68625939,1.49012 0.04554,5e-5 0.0907943,-5.8e-4 0.13573869,-0.002 1.0429442,-0.0251 1.9291584,-0.34907 2.8283071,-0.78924 0.5907844,0.21731 1.2353097,0.33071 1.8881916,0.33221 2.4668663,-10e-5 4.4665426,-1.56397 4.4663871,-3.493 -1.388e-4,-1.92884 -1.99973,-3.49247 -4.4663871,-3.49258 z m 0.078343,0.73521 c 0.3082386,0 0.5625465,0.0436 0.7629014,0.13112 0.200355,0.0822 0.3594409,0.1873 0.4775989,0.31588 0.1181579,0.12856 0.2005237,0.2701 0.2467595,0.42437 0.046235,0.15428 0.069126,0.30342 0.069126,0.44741 0,0.17486 -0.033342,0.33162 -0.1001281,0.47046 -0.061649,0.13885 -0.1411905,0.26756 -0.2387996,0.38584 -0.097609,0.11826 -0.2028647,0.23133 -0.3158855,0.33931 -0.1130209,0.1028 -0.218277,0.2107 -0.3158857,0.32383 -0.097609,0.10803 -0.1799743,0.22387 -0.2467595,0.34728 -0.061648,0.12342 -0.092586,0.26213 -0.092586,0.41643 v 0.093 c 0,0.0308 0.00282,0.0617 0.00796,0.0926 h -0.801447 c -0.010274,-0.0516 -0.017905,-0.10563 -0.023042,-0.16211 -0.00516,-0.0618 -0.00796,-0.1183 -0.00796,-0.16969 0,-0.16967 0.028535,-0.32123 0.085046,-0.45493 0.056511,-0.13372 0.1284236,-0.2572 0.2157572,-0.37033 0.087333,-0.11314 0.1797339,-0.21858 0.2773427,-0.31629 0.1027464,-0.0978 0.1975493,-0.19555 0.2848834,-0.29324 0.087334,-0.0978 0.1592472,-0.19795 0.2157577,-0.30078 0.056511,-0.1028 0.085046,-0.21592 0.085046,-0.33935 0,-0.16969 -0.059058,-0.30843 -0.1772145,-0.4164 -0.1130208,-0.11316 -0.2853819,-0.1701 -0.5165609,-0.1701 -0.1798057,0 -0.3517481,0.0232 -0.5161419,0.0697 -0.1643938,0.0412 -0.3363363,0.11047 -0.5161419,0.2082 l -0.2622604,-0.71763 c 0.1900802,-0.10792 0.4058186,-0.19257 0.6472721,-0.25428 0.2465907,-0.0668 0.498495,-0.10017 0.7553604,-0.10017 z m -0.1231702,4.34259 c 0.1746683,0 0.3208976,0.0589 0.4390561,0.1772 0.1181577,0.11313 0.177214,0.25988 0.177214,0.43988 0,0.17997 -0.059058,0.32631 -0.177214,0.43944 -0.1181585,0.11314 -0.2643878,0.17008 -0.4390561,0.17008 -0.1695311,0 -0.3161794,-0.057 -0.4394749,-0.17008 -0.1181581,-0.11313 -0.177214,-0.25947 -0.1772142,-0.43944 0,-0.18 0.059057,-0.32675 0.1772142,-0.43988 0.1232955,-0.11827 0.2699438,-0.1772 0.4394749,-0.1772 z"
       id="path815"
       inkscape:connector-curvature="0" />
  </g>
</svg>
