<?xml version="1.0" standalone="no"?>
<!DOCTYPE svg PUBLIC "-//W3C//DTD SVG 20010904//EN"
 "http://www.w3.org/TR/2001/REC-SVG-20010904/DTD/svg10.dtd">
<svg version="1.0" xmlns="http://www.w3.org/2000/svg"
 width="794.000000pt" height="794.000000pt" viewBox="0 0 794.000000 794.000000"
 preserveAspectRatio="xMidYMid meet">
<metadata>
Created by potrace 1.11, written by Peter Selinger 2001-2013
</metadata>
<g transform="translate(0.000000,794.000000) scale(0.100000,-0.100000)"
fill="#000000" stroke="none">
<path d="M1839 6705 c-2 -2 -29 -6 -59 -9 -30 -4 -68 -9 -83 -12 -16 -3 -38
-7 -50 -8 -12 -2 -31 -6 -42 -9 -11 -3 -31 -8 -45 -11 -114 -19 -310 -91 -455
-166 -125 -65 -130 -68 -226 -132 -353 -238 -638 -616 -774 -1024 -40 -121
-38 -114 -65 -248 -30 -146 -32 -164 -34 -371 -2 -148 1 -217 16 -310 10 -66
20 -124 22 -130 1 -5 8 -36 15 -67 13 -59 66 -221 96 -293 161 -383 452 -722
810 -944 222 -137 546 -252 783 -277 35 -4 62 -12 62 -18 0 -10 -170 -316
-189 -341 -5 -5 -25 -41 -45 -79 -34 -61 -36 -71 -26 -97 14 -33 7 -31 148
-34 143 -2 289 -15 342 -30 8 -2 31 -7 50 -10 153 -26 403 -118 595 -220 44
-24 177 -101 295 -172 309 -186 540 -299 773 -379 195 -68 412 -109 453 -86
10 5 27 26 38 46 12 19 95 165 186 323 91 158 170 297 177 308 7 11 15 27 19
35 4 8 26 47 49 85 83 140 95 164 95 189 0 31 -19 42 -96 55 -95 16 -109 20
-231 57 -257 78 -554 214 -829 380 -209 128 -354 209 -436 247 -38 16 -68 33
-68 36 0 4 39 34 88 68 48 34 103 76 122 94 106 96 128 118 188 183 292 318
472 724 518 1171 9 81 8 327 -1 394 -27 209 -78 431 -125 536 -5 11 -21 49
-36 85 -32 80 -93 194 -150 280 -70 108 -120 173 -194 254 -278 305 -623 507
-1025 601 -92 21 -101 23 -160 30 -27 4 -61 9 -75 12 -29 6 -416 14 -421 8z
m292 -1219 c146 -17 330 -107 439 -215 120 -118 185 -232 231 -406 21 -79 16
-283 -9 -377 -66 -245 -243 -445 -476 -538 -112 -45 -202 -60 -331 -55 -591
21 -947 647 -675 1185 113 224 345 378 610 406 36 3 66 7 68 9 3 3 84 -3 143
-9z"/>
<path d="M5824 6539 c-11 -6 -36 -36 -54 -67 -18 -31 -51 -85 -72 -119 -21
-34 -38 -64 -38 -67 0 -3 -362 -632 -389 -676 -9 -14 -178 -307 -245 -424 -16
-28 -135 -233 -264 -456 -129 -223 -245 -423 -257 -445 -13 -22 -46 -80 -75
-130 -29 -49 -62 -106 -73 -125 -10 -19 -111 -192 -222 -385 -319 -552 -325
-563 -325 -579 0 -21 44 -52 215 -149 189 -107 368 -192 545 -261 100 -38 292
-94 350 -102 54 -7 62 -2 96 61 9 18 290 506 422 735 30 52 65 113 77 135 118
215 291 505 312 524 21 18 34 22 61 17 19 -3 40 -13 47 -23 11 -14 265 -453
301 -518 6 -11 52 -91 102 -178 51 -88 92 -161 92 -163 0 -3 8 -17 19 -32 10
-15 88 -148 172 -296 l154 -268 48 5 c67 8 271 70 407 124 223 88 646 311 693
365 22 27 20 33 -65 181 -98 170 -191 330 -365 632 -82 143 -176 305 -208 360
-89 153 -88 152 -162 282 -39 67 -73 128 -77 135 -3 7 -14 25 -24 40 -9 15
-73 125 -142 244 -69 120 -132 229 -140 243 -9 14 -35 60 -58 101 -24 41 -48
84 -55 95 -23 37 -54 90 -79 135 -56 101 -563 977 -582 1007 -33 50 -90 67
-142 42z"/>
</g>
</svg>
