<?xml version="1.0" encoding="UTF-8" standalone="no"?>
<!-- Created with Inkscape (http://www.inkscape.org/) -->

<svg
   xmlns:dc="http://purl.org/dc/elements/1.1/"
   xmlns:cc="http://creativecommons.org/ns#"
   xmlns:rdf="http://www.w3.org/1999/02/22-rdf-syntax-ns#"
   xmlns:svg="http://www.w3.org/2000/svg"
   xmlns="http://www.w3.org/2000/svg"
   xmlns:sodipodi="http://sodipodi.sourceforge.net/DTD/sodipodi-0.dtd"
   xmlns:inkscape="http://www.inkscape.org/namespaces/inkscape"
   width="210.18996mm"
   height="145.37991mm"
   viewBox="0 0 210.18996 145.37991"
   version="1.1"
   id="svg8"
   inkscape:version="0.92.4 (5da689c313, 2019-01-14)"
   sodipodi:docname="qa_fill_primary.svg">
  <defs
     id="defs2" />
  <sodipodi:namedview
     id="base"
     pagecolor="#ffffff"
     bordercolor="#666666"
     borderopacity="1.0"
     inkscape:pageopacity="0.0"
     inkscape:pageshadow="2"
     inkscape:zoom="0.7"
     inkscape:cx="-240.25104"
     inkscape:cy="45.300982"
     inkscape:document-units="mm"
     inkscape:current-layer="svg8"
     showgrid="false"
     inkscape:window-width="1920"
     inkscape:window-height="1043"
     inkscape:window-x="0"
     inkscape:window-y="0"
     inkscape:window-maximized="1"
     fit-margin-top="0"
     fit-margin-left="0"
     fit-margin-right="0"
     fit-margin-bottom="0" />
  <metadata
     id="metadata5">
    <rdf:RDF>
      <cc:Work
         rdf:about="">
        <dc:format>image/svg+xml</dc:format>
        <dc:type
           rdf:resource="http://purl.org/dc/dcmitype/StillImage" />
        <dc:title />
      </cc:Work>
    </rdf:RDF>
  </metadata>
  <g
     transform="matrix(0.34580902,0,0,0.34580902,-40.459655,-33.841625)"
     id="g7"
     style="fill:#004050;fill-opacity:1">
    <path
       id="Path_582"
       data-name="Path 582"
       d="m 573.98,114.11 a 8.144,8.144 0 0 0 -14.08,0 l -150.6,260.5 a 3.666,3.666 0 0 0 1.23,4.94 c 39.67,24.92 68.81,33.73 84.62,37.01 a 3.649,3.649 0 0 0 3.9,-1.76 l 62.52,-108.74 a 6.186,6.186 0 0 1 10.7,0 l 62.49,108.7 a 3.647,3.647 0 0 0 3.9,1.76 c 15.81,-3.28 44.77,-12.05 84.44,-36.97 a 3.666,3.666 0 0 0 1.23,-4.94 z"
       inkscape:connector-curvature="0"
       style="fill:#004050;fill-opacity:1" />
    <path
       id="Path_583"
       data-name="Path 583"
       d="m 271.5,313.75 c -41.64,0 -73.61,-41.47 -56.84,-85.37 a 57.038,57.038 0 0 1 32.77,-32.82 c 43.91,-16.86 85.44,15.12 85.44,56.8 a 61.385,61.385 0 0 1 -61.37,61.39 m 207.63,124.86 c -12.86,-1.78 -46.06,-9.05 -92.9,-38.74 a 238.692,238.692 0 0 0 -31.01,-16.77 0.488,0.488 0 0 1 -0.06,-0.86 c 53.2,-34.31 83.94,-100.43 65.4,-171.47 A 150.849,150.849 0 0 0 310.2,102.56 C 208.1,77.78 117,154.44 117,252.36 a 154.5,154.5 0 0 0 138.69,153.69 0.5,0.5 0 0 1 0.38,0.74 l -20.39,35.56 a 4.493,4.493 0 0 0 4.01,6.73 c 19.17,-0.49 51.19,-1.34 100.99,30.2 54.62,34.61 87.16,38.39 94.07,38.89 1.84,0.14 4.75,0.6 6.67,-2.99 4.97,-8.91 40.58,-70.73 40.58,-70.73 a 3.926,3.926 0 0 0 -2.87,-5.84"
       inkscape:connector-curvature="0"
       style="fill:#004050;fill-opacity:1" />
  </g>
</svg>
